<svg xmlns="http://www.w3.org/2000/svg" version="1.1" xmlns:xlink="http://www.w3.org/1999/xlink" width="1000" height="1000"><style>
    #light-icon {
      display: inline;
    }
    #dark-icon {
      display: none;
    }

    @media (prefers-color-scheme: dark) {
      #light-icon {
        display: none;
      }
      #dark-icon {
        display: inline;
      }
    }
  </style><g id="light-icon"><svg xmlns="http://www.w3.org/2000/svg" version="1.1" xmlns:xlink="http://www.w3.org/1999/xlink" width="1000" height="1000"><g clip-path="url(#SvgjsClipPath1141)"><rect width="1000" height="1000" fill="#ff0000"></rect><g transform="matrix(3.3333333333333335,0,0,3.3333333333333335,100,100)"><svg xmlns="http://www.w3.org/2000/svg" version="1.1" xmlns:xlink="http://www.w3.org/1999/xlink" width="240" height="240"><svg id="Layer_1" data-name="Layer 1" xmlns="http://www.w3.org/2000/svg" viewBox="0 0 240 240">
  <path d="M120,0C53.73,0,0,53.73,0,120s53.73,120,120,120,120-53.73,120-120S186.27,0,120,0ZM117.4,190.1h-48.96V58.2h48.96v13.79h-33.09v44.41h33.09v13.79h-33.09v46.11h33.09v13.79ZM171.56,190.1h-12.33v-59.9h-30.52v-13.79h30.52v-58.2h12.33v131.9Z" style="fill: #ffffff; stroke-width: 0px;"></path>
</svg></svg></g></g><defs><clipPath id="SvgjsClipPath1141"><rect width="1000" height="1000" x="0" y="0" rx="500" ry="500"></rect></clipPath></defs></svg></g><g id="dark-icon"><svg xmlns="http://www.w3.org/2000/svg" version="1.1" xmlns:xlink="http://www.w3.org/1999/xlink" width="1000" height="1000"><g clip-path="url(#SvgjsClipPath1142)"><rect width="1000" height="1000" fill="#ff0000"></rect><g transform="matrix(3.3333333333333335,0,0,3.3333333333333335,100,100)"><svg xmlns="http://www.w3.org/2000/svg" version="1.1" xmlns:xlink="http://www.w3.org/1999/xlink" width="240" height="240"><svg id="Layer_1" data-name="Layer 1" xmlns="http://www.w3.org/2000/svg" viewBox="0 0 240 240">
  <path d="M120,0C53.73,0,0,53.73,0,120s53.73,120,120,120,120-53.73,120-120S186.27,0,120,0ZM117.4,190.1h-48.96V58.2h48.96v13.79h-33.09v44.41h33.09v13.79h-33.09v46.11h33.09v13.79ZM171.56,190.1h-12.33v-59.9h-30.52v-13.79h30.52v-58.2h12.33v131.9Z" style="fill: #ffffff; stroke-width: 0px;"></path>
</svg></svg></g></g><defs><clipPath id="SvgjsClipPath1142"><rect width="1000" height="1000" x="0" y="0" rx="500" ry="500"></rect></clipPath></defs></svg></g></svg>